Coordinates
version=1
nRows=29
nColumns=24
inDegrees=yes

Units are S.I. units (second, meters, Newtons, ...)
Angles are in degrees.

endheader
time	pelvis_tilt	pelvis_list	pelvis_rotation	pelvis_tx	pelvis_ty	pelvis_tz	hip_flexion_r	hip_adduction_r	hip_rotation_r	knee_angle_r	ankle_angle_r	subtalar_angle_r	mtp_angle_r	hip_flexion_l	hip_adduction_l	hip_rotation_l	knee_angle_l	ankle_angle_l	subtalar_angle_l	mtp_angle_l	lumbar_extension	lumbar_bending	lumbar_rotation
      0.50800000	     -3.98726363	      0.65760172	      7.21118903	     -0.70573639	      0.88595920	      0.28725475	     28.78590399	     -2.07889893	     -9.48946007	     -3.32366152	      6.53375446	      3.28202931	      6.52273975	    -16.01621075	      0.93240277	      5.72769597	     -6.01249085	     14.48277895	     -0.36051771	      6.97784234	     -2.91445052	     -1.37986017	    -10.89199533
      0.51216667	     -4.07417006	      0.63757809	      7.25039380	     -0.69997788	      0.88455029	      0.28761594	     29.06548155	     -2.02073143	     -9.16086227	     -3.83906079	      6.47846945	      3.05155248	      6.49297837	    -16.06444643	      0.83171423	      5.65313781	     -6.54421929	     14.67213257	     -0.02259841	      7.05834384	     -2.79697349	     -1.31932416	    -10.85335957
      0.51633333	     -4.12311721	      0.59778942	      7.28463904	     -0.69417234	      0.88321846	      0.28800411	     29.29874500	     -1.93188128	     -8.83159125	     -4.42513736	      6.42661566	      2.80236392	      6.47726073	    -16.15881642	      0.70896092	      5.64061036	     -7.06805015	     14.84072878	      0.18143988	      7.13773225	     -2.73280174	     -1.21542450	    -10.84739478
      0.52050000	     -4.18445960	      0.55269676	      7.29947363	     -0.68833437	      0.88188728	      0.28844675	     29.57418142	     -1.82901036	     -8.51825096	     -5.14262375	      6.29526018	      2.48131516	      6.46795270	    -16.22092064	      0.58470584	      5.58128809	     -7.62976954	     14.96964488	      0.40614411	      7.23132110	     -2.63685111	     -1.11446775	    -10.81617892
      0.52466667	     -4.25373179	      0.48616546	      7.30637531	     -0.68243479	      0.88057690	      0.28893585	     29.85920479	     -1.69787656	     -8.23494694	     -5.92390871	      6.03246493	      2.10148678	      6.46356545	    -16.24855284	      0.43258176	      5.44678946	     -8.24171199	     15.08267930	      0.79184768	      7.41004552	     -2.52604495	     -1.00553966	    -10.74740832
      0.52883333	     -4.29699728	      0.42021054	      7.28951405	     -0.67651325	      0.87931110	      0.28946005	     30.13684863	     -1.55228688	     -7.92684275	     -6.81029443	      5.84946012	      1.73838104	      6.47019375	    -16.30527241	      0.29282185	      5.36377252	     -8.86716470	     15.16979794	      0.96843674	      7.54094933	     -2.45835218	     -0.87630811	    -10.69519319
      0.53300000	     -4.34984781	      0.33771996	      7.27201917	     -0.67051840	      0.87807614	      0.29001063	     30.42162984	     -1.38756516	     -7.66997304	     -7.73659817	      5.47609054	      1.28151618	      6.49628048	    -16.31844154	      0.12557256	      5.16802096	     -9.55387702	     15.23404106	      1.39588723	      7.82716672	     -2.32714844	     -0.72483587	    -10.56516947
      0.53716667	     -4.39097140	      0.27426536	      7.21466031	     -0.66453061	      0.87686772	      0.29063781	     30.72801880	     -1.21989178	     -7.35824515	     -8.77739892	      5.21283547	      0.87183113	      6.51685667	    -16.34496377	     -0.00120640	      5.04110987	    -10.25124585	     15.23241921	      1.52298973	      7.99286046	     -2.26608276	     -0.59874489	    -10.49573076
      0.54133333	     -4.41799510	      0.14195880	      7.17273997	     -0.65843497	      0.87573234	      0.29128816	     30.98521998	     -0.98128975	     -7.12529725	     -9.77648221	      4.74201619	      0.35486634	      6.60713229	    -16.32571244	     -0.22923141	      4.72822543	    -11.06129778	     15.27661969	      2.05107199	      8.59861744	     -2.17819007	     -0.39240585	    -10.29077236
      0.54550000	     -4.49815838	      0.07511190	      7.09901095	     -0.65233848	      0.87454146	      0.29196080	     31.36380805	     -0.80740448	     -6.87046898	    -10.95520970	      4.36473231	     -0.10954274	      6.65141261	    -16.30914608	     -0.34720742	      4.65314060	    -11.76488076	     15.17638648	      2.15219422	      8.90054757	     -2.02246632	     -0.27328454	    -10.18386113
      0.54966667	     -4.53533289	     -0.04226392	      7.02934689	     -0.64621157	      0.87346110	      0.29267357	     31.66086770	     -0.57047165	     -6.62764836	    -12.07316079	      3.90242742	     -0.61006642	      6.74302214	    -16.24347975	     -0.54247153	      4.37402530	    -12.65939465	     15.10617245	      2.46569856	      9.50861842	     -1.93418610	     -0.08273269	     -9.95954731
      0.55383333	     -4.56531439	     -0.09563462	      6.89617984	     -0.64003735	      0.87241817	      0.29344919	     32.00458705	     -0.37151389	     -6.32816716	    -13.34067551	      3.55959765	     -1.03667693	      6.77246054	    -16.25926326	     -0.63365674	      4.23427735	    -13.41440910	     14.86414249	      2.50944061	      9.73518471	     -1.85718190	      0.03396678	     -9.87759263
      0.55800000	     -4.58744290	     -0.23685437	      6.81167163	     -0.63379154	      0.87146013	      0.29421575	     32.29022494	     -0.10072897	     -6.13086834	    -14.51494396	      3.05887548	     -1.57765264	      7.49150194	    -16.18521494	     -0.85713076	      3.94187303	    -14.33992126	     14.67269835	      2.79140349	     15.02846678	     -1.75724072	      0.25715544	     -9.80967463
      0.56216667	     -4.62769340	     -0.31219350	      6.67389791	     -0.62754085	      0.87051305	      0.29500820	     32.63686271	      0.11964395	     -5.88486130	    -15.80277586	      2.73540964	     -1.93827940	      7.48293017	    -16.12835749	     -0.96525966	      3.78702150	    -15.21972922	     14.32204236	      2.78434670	     15.06924924	     -1.64542371	      0.40630828	     -9.54152701
      0.56633333	     -4.67014142	     -0.41654796	      6.55266761	     -0.62125413	      0.86963014	      0.29581204	     32.97156885	      0.36412677	     -5.67282147	    -17.07806420	      2.39953296	     -2.33849962	      7.47209446	    -16.02380902	     -1.11369998	      3.61738843	    -16.18029777	     14.01574416	      2.85519330	     15.15590338	     -1.53122397	      0.57861295	     -9.30402270
      0.57050000	     -4.68790524	     -0.53622285	      6.42866651	     -0.61491858	      0.86884589	      0.29662023	     33.26984566	      0.62577785	     -5.49132734	    -18.34820210	      2.08961537	     -2.73586162	      7.45465049	    -15.91692688	     -1.28398243	      3.41108219	    -17.19189838	     13.69177122	      2.98581953	     15.34480336	     -1.42269729	      0.78380908	     -9.04008379
      0.57466667	     -4.69108983	     -0.65977207	      6.28705116	     -0.60854483	      0.86816248	      0.29746783	     33.53388301	      0.90793179	     -5.26957396	    -19.59832834	      1.89288823	     -3.05596148	      7.43952866	    -15.81147318	     -1.45082431	      3.21545777	    -18.22416518	     13.21009862	      3.00057968	     15.50257245	     -1.36344539	      0.98467586	     -8.87431003
      0.57883333	     -4.65951230	     -0.85232278	      6.16250975	     -0.60209373	      0.86759423	      0.29830830	     33.72358462	      1.25131536	     -5.12978369	    -20.78186131	      1.73099958	     -3.37266355	      7.31637540	    -15.67762174	     -1.72313411	      2.88163720	    -19.37463713	     12.81184788	      3.25332664	     16.72595406	     -1.28807591	      1.30138503	     -8.43942939
      0.58300000	     -4.64550525	     -0.93898289	      6.02141875	     -0.59572560	      0.86709679	      0.29913550	     33.95366422	      1.49519417	     -4.91480768	    -22.03282760	      1.65762276	     -3.64106260	      7.29743208	    -15.54128635	     -1.83639399	      2.77179365	    -20.48000608	     12.17529756	      3.11173441	     16.87770727	     -1.25020472	      1.45786838	     -8.42502401
      0.58716667	     -4.64362814	     -1.05770041	      5.90418388	     -0.58932929	      0.86663536	      0.29992281	     34.18226685	      1.74575779	     -4.80137550	    -23.26691100	      1.62719171	     -3.84522962	      7.24710906	    -15.32103529	     -2.00031908	      2.59677315	    -21.71508903	     11.62942352	      3.09487779	     17.23186109	     -1.16580867	      1.65574609	     -8.19649487
      0.59133333	     -4.55928596	     -1.24174305	      5.78075181	     -0.58283788	      0.86641479	      0.30076171	     34.24734812	      2.09124872	     -4.65067912	    -24.36236902	      1.73292847	     -4.05762971	      6.42847522	    -15.17130715	     -2.25767995	      2.34515031	    -22.94658385	     10.89251409	      3.03985632	     22.21549238	     -1.18026435	      1.95175032	     -8.00913040
      0.59550000	     -4.48667944	     -1.40264726	      5.67383987	     -0.57636484	      0.86626551	      0.30152483	     34.31347791	      2.38769195	     -4.56351633	    -25.45160625	      1.89371980	     -4.15448077	      6.43000762	    -14.98152383	     -2.47451440	      2.18938490	    -24.22201934	     10.11819519	      2.96011481	     22.23777226	     -1.18145855	      2.22631388	     -7.89454993
      0.59966667	     -4.40858491	     -1.56005967	      5.57296585	     -0.56992145	      0.86618003	      0.30229512	     34.35401212	      2.67662990	     -4.49996856	    -26.50896776	      2.11289504	     -4.22285701	      6.41174866	    -14.73738871	     -2.70302896	      1.97679899	    -25.59767001	      9.37571007	      2.94882475	     22.32846933	     -1.18527330	      2.47435568	     -7.69357217
      0.60383333	     -4.28810715	     -1.74793542	      5.48103634	     -0.56344159	      0.86627248	      0.30303891	     34.28857309	      2.99961178	     -4.44260669	    -27.45484870	      2.39394805	     -4.30365374	      6.40119146	    -14.52151950	     -2.96399113	      1.80234909	    -26.97526709	      8.51658226	      2.85172068	     22.38307346	     -1.23869738	      2.78762288	     -7.58737128
      0.60800000	     -4.16590596	     -1.93498915	      5.39868103	     -0.55698996	      0.86644362	      0.30377090	     34.18886033	      3.31412577	     -4.41437933	    -28.34305564	      2.72282246	     -4.33282682	      6.38412797	    -14.25611638	     -3.23787871	      1.59170565	    -28.42365808	      7.60867569	      2.79812823	     22.45503951	     -1.29276445	      3.08955965	     -7.45477998
      0.61216667	     -4.03085276	     -2.12325194	      5.31869601	     -0.55057634	      0.86668357	      0.30449812	     34.04740872	      3.62167332	     -4.42782272	    -29.17882756	      3.10139377	     -4.26153421	      6.32563729	    -13.95429248	     -3.53051299	      1.32552658	    -29.94588059	      6.73836802	      2.82451594	     22.63284696	     -1.36304405	      3.37049769	     -7.26281704
      0.61633333	     -3.86846773	     -2.33473190	      5.25439372	     -0.54416329	      0.86706570	      0.30519683	     33.81850734	      3.95028520	     -4.45793853	    -29.90338808	      3.51487935	     -4.22041303	      6.23899496	    -13.65351958	     -3.85761525	      1.07319017	    -31.48416502	      5.75058652	      2.79230448	     22.85697264	     -1.46491353	      3.70046196	     -7.13118050
      0.62050000	     -3.71103220	     -2.53154920	      5.21113018	     -0.53779866	      0.86754505	      0.30585509	     33.54771304	      4.25851611	     -4.48506231	    -30.54061713	      3.95692924	     -4.24479867	      6.21491333	    -13.31632926	     -4.16165902	      0.90275447	    -33.03330333	      4.69086535	      2.64464066	     22.92166112	     -1.56366842	      4.02155674	     -7.05907097
      0.62466667	     -3.53222389	     -2.74621942	      5.16289050	     -0.53146987	      0.86809510	      0.30651825	     33.21799298	      4.57805059	     -4.56509176	    -31.10101410	      4.41577988	     -4.10754476	      6.14746923	    -12.95503063	     -4.51466140	      0.62557663	    -34.64428574	      3.64803105	      2.59173565	     23.05502625	     -1.68876215	      4.33877587	     -6.94555724
